<svg width="14" height="14" viewBox="0 0 14 14" fill="none" xmlns="http://www.w3.org/2000/svg">
<path d="M12.9658 7.43506C12.9658 10.7488 10.2795 13.4351 6.96582 13.4351C6.16772 13.4351 5.40602 13.2792 4.70948 12.9964C4.57617 12.9422 4.50951 12.9151 4.45563 12.9031C4.40293 12.8912 4.36392 12.8869 4.30991 12.8869C4.25469 12.8869 4.19454 12.8969 4.07425 12.917L1.70233 13.3123C1.45394 13.3537 1.32975 13.3744 1.23994 13.3359C1.16134 13.3022 1.09871 13.2395 1.06499 13.1609C1.02648 13.0711 1.04717 12.9469 1.08857 12.6986L1.48389 10.3266C1.50394 10.2063 1.51397 10.1462 1.51396 10.091C1.51395 10.037 1.50963 9.99795 1.49782 9.94525C1.48574 9.89136 1.45867 9.82471 1.40453 9.6914C1.12164 8.99486 0.96582 8.23315 0.96582 7.43506C0.96582 4.12135 3.65211 1.43506 6.96582 1.43506C10.2795 1.43506 12.9658 4.12135 12.9658 7.43506Z" stroke="#939494" stroke-linecap="round" stroke-linejoin="round"/>
</svg>
